<?xml version="1.0" encoding="UTF-8" standalone="no"?>
<!DOCTYPE svg PUBLIC "-//W3C//DTD SVG 1.1//EN" "http://www.w3.org/Graphics/SVG/1.1/DTD/svg11.dtd">
<svg width="100%" height="100%" viewBox="0 0 842 596" version="1.1" xmlns="http://www.w3.org/2000/svg" xmlns:xlink="http://www.w3.org/1999/xlink" xml:space="preserve" xmlns:serif="http://www.serif.com/" style="fill-rule:evenodd;clip-rule:evenodd;stroke-linejoin:round;stroke-miterlimit:2;">
    <g transform="matrix(1,0,0,1,-0.005,0.005)">
        <path d="M578.06,220.02L578.06,375.25C578.06,383.35 573.74,390.84 566.72,394.89L432.29,472.51C425.27,476.56 416.63,476.56 409.61,472.51L275.18,394.89C268.16,390.84 263.84,383.35 263.84,375.25L263.84,220.02C263.84,211.92 268.16,204.43 275.18,200.38L409.61,122.76C416.63,118.71 425.27,118.71 432.29,122.76L566.72,200.38C573.74,204.43 578.06,211.92 578.06,220.02ZM417.55,209.41L417.55,328.45L426.51,328.45L426.51,209.41L417.55,209.41ZM411.93,358.959L411.93,362.999L422.21,362.999L422.21,387.759L427.01,387.759L427.01,362.999L435.01,362.999C435.49,362.999 435.89,362.873 436.21,362.619C436.53,362.366 436.77,362.039 436.93,361.639C437.09,361.239 437.19,360.806 437.23,360.339C437.27,359.873 437.277,359.413 437.25,358.959L411.93,358.959ZM478.61,387.759L483.01,387.759L483.01,378.479C483.01,376.239 483.49,374.386 484.45,372.919C485.41,371.453 486.823,370.719 488.69,370.719C490.21,370.719 491.403,371.286 492.27,372.419C493.137,373.553 493.57,375.199 493.57,377.359L493.57,387.759L497.97,387.759L497.97,375.799C497.97,373.026 497.13,370.859 495.45,369.299C493.77,367.739 491.65,366.959 489.09,366.959C487.89,366.959 486.777,367.173 485.75,367.599C484.723,368.026 483.81,368.679 483.01,369.559L483.01,360.239C483.01,359.653 482.863,359.179 482.57,358.819C482.277,358.459 481.917,358.186 481.49,357.999C481.037,357.813 480.557,357.706 480.05,357.679C479.543,357.653 479.063,357.679 478.61,357.759L478.61,387.759ZM453.81,382.439C452.717,383.026 451.61,383.499 450.49,383.859C449.37,384.219 448.263,384.399 447.17,384.399C445.223,384.399 443.65,383.913 442.45,382.939C441.25,381.966 440.583,380.639 440.45,378.959L456.01,378.959C456.01,377.279 455.83,375.713 455.47,374.259C455.11,372.806 454.543,371.533 453.77,370.439C452.997,369.373 451.983,368.526 450.73,367.899C449.477,367.273 447.97,366.959 446.21,366.959C444.663,366.959 443.263,367.219 442.01,367.739C440.757,368.259 439.69,368.986 438.81,369.919C437.903,370.826 437.21,371.919 436.73,373.199C436.25,374.479 436.01,375.866 436.01,377.359C436.01,380.666 436.95,383.293 438.83,385.239C440.71,387.186 443.49,388.159 447.17,388.159C448.21,388.159 449.283,388.086 450.39,387.939C451.497,387.793 452.557,387.399 453.57,386.759C453.89,386.546 454.077,386.286 454.13,385.979C454.183,385.673 454.21,385.319 454.21,384.919L453.81,382.439ZM440.49,375.399C440.73,374.279 441.323,373.219 442.27,372.219C443.217,371.219 444.53,370.719 446.21,370.719C447.73,370.719 448.957,371.186 449.89,372.119C450.823,373.053 451.37,374.146 451.53,375.399L440.49,375.399ZM409.29,369.879C409.29,369.293 409.143,368.819 408.85,368.459C408.557,368.099 408.197,367.826 407.77,367.639C407.317,367.453 406.837,367.346 406.33,367.319C405.823,367.293 405.343,367.306 404.89,367.359L404.89,376.799C404.89,379.039 404.403,380.873 403.43,382.299C402.457,383.726 400.997,384.439 399.05,384.439C397.557,384.439 396.397,383.866 395.57,382.719C394.743,381.573 394.33,379.919 394.33,377.759L394.33,369.879C394.33,369.293 394.183,368.819 393.89,368.459C393.597,368.099 393.237,367.826 392.81,367.639C392.357,367.453 391.877,367.346 391.37,367.319C390.863,367.293 390.383,367.306 389.93,367.359L389.93,379.279C389.93,382.053 390.723,384.226 392.31,385.799C393.897,387.373 396.01,388.159 398.65,388.159C399.77,388.159 400.91,387.953 402.07,387.539C403.23,387.126 404.223,386.519 405.05,385.719L405.05,385.999C405.05,386.773 405.33,387.286 405.89,387.539C406.45,387.793 407.09,387.919 407.81,387.919C407.97,387.919 408.25,387.906 408.65,387.879C409.05,387.853 409.463,387.813 409.89,387.759C409.703,387.333 409.557,386.933 409.45,386.559C409.343,386.186 409.29,385.666 409.29,384.999L409.29,369.879ZM386.53,360.239C386.53,359.653 386.383,359.173 386.09,358.799C385.797,358.426 385.437,358.159 385.01,357.999C384.557,357.813 384.077,357.706 383.57,357.679C383.063,357.653 382.583,357.679 382.13,357.759L382.17,369.479C381.423,368.813 380.497,368.226 379.39,367.719C378.283,367.213 377.077,366.959 375.77,366.959C374.277,366.959 372.943,367.239 371.77,367.799C370.597,368.359 369.61,369.119 368.81,370.079C367.983,371.039 367.363,372.146 366.95,373.399C366.537,374.653 366.33,375.973 366.33,377.359C366.33,378.746 366.523,380.093 366.91,381.399C367.297,382.706 367.877,383.853 368.65,384.839C369.423,385.853 370.403,386.659 371.59,387.259C372.777,387.859 374.157,388.159 375.73,388.159C377.17,388.159 378.45,387.886 379.57,387.339C380.69,386.793 381.61,386.173 382.33,385.479L382.33,385.959C382.33,386.759 382.61,387.273 383.17,387.499C383.73,387.726 384.37,387.839 385.09,387.839L385.93,387.839C386.09,387.839 386.25,387.833 386.41,387.819C386.57,387.806 386.743,387.786 386.93,387.759L386.91,387.659C386.897,387.593 386.89,387.519 386.89,387.439L386.89,387.119C386.837,387.013 386.79,386.893 386.75,386.759C386.71,386.626 386.677,386.453 386.65,386.239C386.597,386.026 386.563,385.759 386.55,385.439C386.537,385.119 386.53,384.719 386.53,384.239L386.53,360.239ZM370.73,377.559C370.73,376.733 370.85,375.913 371.09,375.099C371.33,374.286 371.69,373.546 372.17,372.879C372.65,372.239 373.25,371.719 373.97,371.319C374.69,370.919 375.517,370.719 376.45,370.719C377.383,370.719 378.21,370.913 378.93,371.299C379.65,371.686 380.25,372.199 380.73,372.839C381.21,373.479 381.57,374.213 381.81,375.039C382.05,375.866 382.17,376.706 382.17,377.559C382.17,378.359 382.057,379.159 381.83,379.959C381.603,380.759 381.25,381.493 380.77,382.159C380.29,382.826 379.69,383.366 378.97,383.779C378.25,384.193 377.397,384.399 376.41,384.399C375.477,384.399 374.657,384.186 373.95,383.759C373.243,383.333 372.65,382.773 372.17,382.079C371.69,381.413 371.33,380.679 371.09,379.879C370.85,379.079 370.73,378.306 370.73,377.559ZM395.03,289.99C397.41,284.23 398.61,277.43 398.62,269.58C398.62,262.49 397.28,256.12 394.59,250.44C391.9,244.76 388.29,239.92 383.77,235.91C379.16,231.99 373.83,228.94 367.77,226.76C361.71,224.59 355.27,223.5 348.44,223.5L320.02,223.5L320.02,315.66L348.44,315.66C355.94,315.66 362.79,314.72 368.98,312.84C375.17,310.96 380.44,308.14 384.79,304.39C389.23,300.55 392.64,295.75 395.03,289.99ZM373.14,245.38C376.21,248.2 378.66,251.65 380.5,255.74C382.33,259.83 383.25,264.44 383.25,269.56C383.25,281.08 380.28,289.49 374.35,294.78C368.42,300.08 360.21,302.72 349.71,302.72L335.37,302.72L335.37,236.42L349.71,236.42C354.15,236.42 358.4,237.18 362.45,238.72C366.5,240.26 370.07,242.48 373.14,245.38ZM462.37,377.559C462.37,375.399 463.023,373.739 464.33,372.579C465.637,371.419 467.463,370.799 469.81,370.719C470.717,370.693 471.63,370.859 472.55,371.219C473.47,371.579 474.29,371.959 475.01,372.359L475.37,369.759C475.423,369.306 475.37,368.919 475.21,368.599C475.05,368.279 474.73,367.999 474.25,367.759C473.53,367.519 472.843,367.326 472.19,367.179C471.537,367.033 470.85,366.959 470.13,366.959C466.37,366.959 463.41,367.859 461.25,369.659C459.09,371.459 458.01,374.093 458.01,377.559C458.01,379.213 458.29,380.693 458.85,381.999C459.41,383.306 460.21,384.413 461.25,385.319C462.29,386.253 463.543,386.959 465.01,387.439C466.477,387.919 468.13,388.159 469.97,388.159C470.77,388.159 471.603,388.106 472.47,387.999C473.337,387.893 474.25,387.613 475.21,387.159C475.477,386.919 475.663,386.646 475.77,386.339C475.877,386.033 475.903,385.679 475.85,385.279L475.49,383.079C475.117,383.239 474.73,383.393 474.33,383.539C473.93,383.686 473.517,383.826 473.09,383.959C472.637,384.093 472.177,384.199 471.71,384.279C471.243,384.359 470.783,384.399 470.33,384.399C467.637,384.399 465.637,383.759 464.33,382.479C463.023,381.199 462.37,379.559 462.37,377.559ZM510.48,315.65L510.48,315.64L528.66,315.64C525.76,311.71 522.86,307.72 519.96,303.67C517.06,299.62 514.12,295.55 511.13,291.45C508.23,287.36 505.33,283.28 502.43,279.23C499.52,275.17 496.67,271.14 493.85,267.13L526.23,223.48L515.35,223.48C513.21,223.48 511.25,223.89 509.46,224.7C507.67,225.52 506.17,226.77 504.98,228.48C504.13,229.76 502.83,231.64 501.08,234.11C499.33,236.59 497.47,239.19 495.51,241.92C493.46,244.74 491.5,247.45 489.62,250.05C487.74,252.65 486.29,254.64 485.27,256L465.94,228.74C464.49,226.87 463,225.52 461.46,224.71C459.92,223.9 458.13,223.49 456.08,223.49L444.05,223.49C446.61,227.16 449.23,230.85 451.92,234.56C454.61,238.27 457.27,242.01 459.92,245.76C462.65,249.43 465.36,253.1 468.05,256.77C470.74,260.44 473.45,264.07 476.18,267.65L441.49,315.65L458.77,315.65C460.9,312.75 463.05,309.76 465.23,306.69C467.4,303.61 469.56,300.54 471.69,297.47C473.91,294.4 476.09,291.35 478.22,288.32C480.35,285.3 482.53,282.29 484.75,279.3L510.48,315.65ZM363.41,370.959L348.73,370.959L348.73,362.999L362.13,362.999C362.61,362.999 363.01,362.873 363.33,362.619C363.65,362.366 363.903,362.039 364.09,361.639C364.25,361.239 364.35,360.806 364.39,360.339C364.43,359.873 364.437,359.413 364.41,358.959L343.93,358.959L343.93,387.759L362.33,387.759C362.81,387.759 363.21,387.633 363.53,387.379C363.85,387.126 364.103,386.799 364.29,386.399C364.45,385.999 364.55,385.566 364.59,385.099C364.63,384.633 364.637,384.173 364.61,383.719L348.73,383.719L348.73,374.999L363.41,374.999L363.41,370.959Z" style="fill:rgb(16,31,14);"/>
    </g>
</svg>
