<?xml version="1.0" encoding="UTF-8" standalone="no"?>
<!DOCTYPE svg PUBLIC "-//W3C//DTD SVG 1.1//EN" "http://www.w3.org/Graphics/SVG/1.1/DTD/svg11.dtd">
<svg width="100%" height="100%" viewBox="0 0 842 596" version="1.1" xmlns="http://www.w3.org/2000/svg" xmlns:xlink="http://www.w3.org/1999/xlink" xml:space="preserve" xmlns:serif="http://www.serif.com/" style="fill-rule:evenodd;clip-rule:evenodd;stroke-linejoin:round;stroke-miterlimit:2;">
    <g transform="matrix(1,0,0,1,-0.005,0.005)">
        <path d="M578.06,220.02L578.06,375.25C578.06,383.35 573.74,390.84 566.72,394.89L432.29,472.51C425.27,476.56 416.63,476.56 409.61,472.51L275.18,394.89C268.16,390.84 263.84,383.35 263.84,375.25L263.84,220.02C263.84,211.92 268.16,204.43 275.18,200.38L409.61,122.76C416.63,118.71 425.27,118.71 432.29,122.76L566.72,200.38C573.74,204.43 578.06,211.92 578.06,220.02ZM569.033,224.48C569.033,216.845 564.961,209.786 558.344,205.968L431.638,132.808C425.022,128.991 416.878,128.991 410.262,132.808L283.556,205.968C276.939,209.786 272.867,216.845 272.867,224.48L272.867,370.79C272.867,378.425 276.939,385.484 283.556,389.302L410.262,462.462C416.878,466.279 425.022,466.279 431.638,462.462L558.344,389.302C564.961,385.484 569.033,378.425 569.033,370.79L569.033,224.48Z" style="fill:rgb(99,111,90);"/>
    </g>
</svg>
